<?xml version="1.0" encoding="UTF-8" standalone="no"?>
<!DOCTYPE svg PUBLIC "-//W3C//DTD SVG 1.1//EN" "http://www.w3.org/Graphics/SVG/1.1/DTD/svg11.dtd">
<svg version="1.1" xmlns="http://www.w3.org/2000/svg" xmlns:xlink="http://www.w3.org/1999/xlink" preserveAspectRatio="xMidYMid meet" viewBox="85.02365274749394 81.01705973166943 186.36814152415872 184.1430786536475" width="186.37" height="184.14"><defs><path d="M271.39 81.02L271.39 265.16L85.02 265.16L85.02 81.02L85.02 81.02L271.39 81.02Z" id="bEOvEpEA"></path><mask id="maska38AWff1K" x="71.02" y="67.02" width="214.37" height="212.14" maskUnits="userSpaceOnUse"><rect x="71.02" y="67.02" width="214.37" height="212.14" fill="white"></rect><use xlink:href="#bEOvEpEA" opacity="1" fill="black"></use></mask><path d="M248.42 140.62L248.54 140.64L248.67 140.65L248.79 140.68L248.91 140.7L249.03 140.74L249.15 140.77L249.27 140.81L249.38 140.86L249.5 140.91L249.61 140.96L249.72 141.02L249.83 141.09L249.94 141.16L250.04 141.23L250.15 141.31L250.25 141.4L250.34 141.48L250.44 141.58L250.53 141.67L250.62 141.77L250.7 141.87L250.77 141.98L250.85 142.08L250.91 142.19L250.98 142.3L251.03 142.42L251.09 142.53L251.13 142.65L251.18 142.76L251.22 142.88L251.25 143L251.28 143.12L251.31 143.24L251.33 143.37L251.34 143.49L251.35 143.61L251.36 143.74L251.36 143.86L251.35 143.98L251.35 144.11L251.33 144.23L251.32 144.35L251.29 144.47L251.27 144.59L251.23 144.71L251.2 144.83L251.16 144.95L251.11 145.07L251.06 145.18L251.01 145.29L250.95 145.41L250.88 145.52L250.81 145.62L250.74 145.73L250.66 145.83L250.58 145.93L250.49 146.03L250.39 146.12L224.85 171.16L224.86 171.17L224.88 171.19L224.92 171.22L224.96 171.27L225.01 171.33L225.07 171.4L225.14 171.48L225.22 171.58L225.3 171.68L225.4 171.79L225.49 171.91L225.6 172.04L225.7 172.18L225.82 172.32L225.93 172.47L226.06 172.62L226.18 172.77L226.3 172.93L226.43 173.09L226.56 173.26L226.69 173.42L226.82 173.58L226.94 173.75L227.07 173.91L227.19 174.07L227.32 174.23L227.44 174.38L227.55 174.53L227.66 174.68L227.77 174.82L227.87 174.95L227.97 175.08L228.06 175.19L228.14 175.3L228.22 175.4L228.29 175.49L228.34 175.57L228.39 175.64L228.43 175.69L228.46 175.74L228.54 175.85L228.63 175.97L228.71 176.09L228.78 176.21L228.86 176.34L228.94 176.46L229.02 176.58L229.1 176.7L229.17 176.82L229.25 176.95L229.32 177.07L229.39 177.2L229.46 177.32L229.53 177.45L229.6 177.57L229.67 177.7L229.74 177.83L229.81 177.96L229.87 178.09L229.93 178.22L230 178.35L230.06 178.48L230.12 178.61L230.17 178.74L230.23 178.87L230.28 179.01L230.34 179.14L230.39 179.27L230.44 179.41L230.49 179.54L230.53 179.68L230.58 179.82L230.62 179.96L230.66 180.09L230.7 180.23L230.73 180.37L230.77 180.51L230.8 180.65L230.83 180.8L230.86 180.94L230.96 181.63L231.03 182.31L231.04 182.97L231.02 183.63L230.96 184.27L230.86 184.9L230.73 185.51L230.56 186.12L230.35 186.71L230.12 187.29L229.85 187.85L229.56 188.4L229.24 188.94L228.89 189.47L228.52 189.98L228.13 190.48L227.72 190.97L227.29 191.44L226.84 191.9L226.38 192.35L225.9 192.78L225.41 193.2L224.91 193.6L224.4 193.99L223.88 194.37L223.36 194.73L222.83 195.07L222.29 195.41L221.76 195.72L221.23 196.03L220.7 196.32L220.17 196.59L219.65 196.85L219.13 197.09L218.62 197.32L218.12 197.54L217.63 197.73L217.16 197.92L216.7 198.08L216.26 198.24L215.76 198.4L215.27 198.57L214.57 198.8L214.18 198.93L213.59 199.52L213.06 200.04L212.75 200.36L212.03 201.08L211.62 201.48L211.2 201.91L210.75 202.36L210.28 202.82L209.8 203.31L209.3 203.81L208.78 204.32L208.26 204.84L207.74 205.37L207.2 205.9L206.67 206.44L206.13 206.97L205.6 207.5L205.07 208.03L204.55 208.55L204.04 209.06L203.54 209.56L203.06 210.04L202.6 210.51L202.15 210.95L201.73 211.38L201.33 211.78L200.96 212.15L200.61 212.49L200.3 212.8L200.03 213.08L199.79 213.32L199.59 213.52L199.43 213.68L199.31 213.79L199.17 213.94L199.04 214.09L198.91 214.24L198.79 214.39L198.67 214.55L198.56 214.71L198.45 214.88L198.35 215.04L198.26 215.21L198.16 215.38L198.07 215.55L197.99 215.73L197.91 215.9L197.83 216.08L197.75 216.26L197.68 216.44L197.61 216.62L197.54 216.81L197.48 216.99L197.41 217.18L197.35 217.36L197.29 217.55L197.23 217.74L197.17 217.92L197.11 218.11L197.05 218.3L196.99 218.49L196.93 218.68L196.86 218.86L196.8 219.05L196.74 219.24L196.67 219.42L196.61 219.61L196.54 219.8L196.47 219.98L196.39 220.16L196.32 220.34L196.24 220.52L196.15 220.7L196.07 220.88L195.93 221.16L195.78 221.43L195.63 221.71L195.48 221.98L195.33 222.26L195.17 222.53L195.01 222.8L194.84 223.07L194.68 223.34L194.5 223.61L194.33 223.87L194.15 224.13L193.97 224.39L193.79 224.65L193.6 224.91L193.41 225.16L193.21 225.42L193.01 225.66L192.81 225.91L192.61 226.15L192.4 226.4L192.19 226.63L191.98 226.87L191.76 227.1L191.54 227.33L191.32 227.55L191.09 227.77L190.86 227.99L190.63 228.21L190.39 228.42L190.15 228.62L189.91 228.82L189.66 229.02L189.42 229.22L189.16 229.4L188.91 229.59L188.65 229.77L188.39 229.94L188.13 230.11L187.86 230.28L187.53 230.47L187.2 230.65L186.87 230.82L186.53 230.98L186.2 231.12L185.86 231.26L185.52 231.38L185.19 231.49L184.85 231.58L184.51 231.67L184.17 231.74L183.83 231.81L183.49 231.86L183.14 231.91L182.8 231.94L182.46 231.96L182.12 231.97L181.77 231.97L181.43 231.96L181.09 231.95L180.75 231.92L180.41 231.88L180.06 231.83L179.72 231.78L179.38 231.71L179.04 231.64L178.7 231.56L178.36 231.47L178.02 231.37L177.69 231.26L177.35 231.14L177.01 231.02L176.68 230.89L176.35 230.75L176.01 230.6L175.68 230.45L175.35 230.28L175.03 230.12L174.7 229.94L174.38 229.76L174.25 229.68L174.12 229.61L173.99 229.53L173.87 229.46L173.74 229.38L173.61 229.31L173.49 229.23L173.36 229.15L173.24 229.07L173.11 228.99L172.99 228.92L172.86 228.84L172.74 228.76L172.62 228.67L172.49 228.59L172.37 228.51L172.25 228.43L172.13 228.35L172.01 228.26L171.89 228.18L171.76 228.09L171.64 228.01L171.52 227.92L171.4 227.84L171.29 227.75L171.17 227.67L171.05 227.58L170.93 227.49L170.81 227.4L170.69 227.31L170.58 227.22L170.46 227.13L170.34 227.04L170.23 226.95L170.11 226.86L170 226.77L169.88 226.68L169.77 226.58L169.65 226.49L169.54 226.4L148.02 247.53L147.97 247.58L147.92 247.62L147.87 247.66L147.82 247.71L147.77 247.75L147.72 247.79L147.67 247.82L147.62 247.86L147.57 247.9L147.51 247.93L147.46 247.97L147.41 248L147.35 248.03L147.3 248.06L147.24 248.09L147.19 248.12L147.13 248.15L147.07 248.17L147.02 248.2L146.96 248.22L146.9 248.24L146.84 248.27L146.79 248.29L146.73 248.3L146.67 248.32L146.61 248.34L146.55 248.35L146.49 248.37L146.43 248.38L146.37 248.39L146.31 248.4L146.25 248.41L146.19 248.42L146.13 248.43L146.07 248.44L146.01 248.44L145.95 248.45L145.89 248.45L145.82 248.45L145.76 248.45L145.7 248.45L145.64 248.45L145.58 248.45L145.51 248.44L145.45 248.44L145.39 248.43L145.33 248.42L145.27 248.41L145.2 248.4L145.14 248.39L145.08 248.38L145.02 248.36L144.96 248.35L144.9 248.33L144.84 248.32L144.78 248.3L144.72 248.28L144.66 248.26L144.6 248.23L144.54 248.21L144.48 248.19L144.42 248.16L144.37 248.13L144.31 248.1L144.25 248.08L144.2 248.04L144.14 248.01L144.09 247.98L144.03 247.95L143.98 247.91L143.92 247.87L143.87 247.84L143.82 247.8L143.77 247.76L143.71 247.71L143.66 247.67L143.61 247.63L143.57 247.58L143.52 247.54L143.47 247.49L143.38 247.39L143.29 247.29L143.21 247.19L143.13 247.09L143.06 246.98L142.99 246.87L142.93 246.76L142.87 246.65L142.82 246.53L142.77 246.42L142.73 246.3L142.69 246.18L142.66 246.06L142.63 245.94L142.6 245.82L142.58 245.7L142.57 245.58L142.56 245.45L142.55 245.33L142.55 245.21L142.55 245.08L142.56 244.96L142.57 244.84L142.59 244.71L142.61 244.59L142.64 244.47L142.67 244.35L142.71 244.23L142.75 244.12L142.8 244L142.85 243.88L142.9 243.77L142.96 243.66L143.03 243.55L143.09 243.44L143.17 243.34L143.25 243.23L143.33 243.13L143.42 243.04L143.51 242.94L164.98 221.86L164.9 221.77L164.82 221.67L164.75 221.58L164.67 221.48L164.59 221.38L164.51 221.29L164.43 221.19L164.36 221.09L164.28 221L164.2 220.9L164.13 220.8L164.05 220.7L163.98 220.6L163.9 220.5L163.83 220.41L163.75 220.31L163.68 220.21L163.61 220.11L163.53 220.01L163.46 219.91L163.39 219.81L163.32 219.71L163.24 219.6L163.17 219.5L163.1 219.4L163.03 219.3L162.96 219.2L162.89 219.09L162.82 218.99L162.75 218.89L162.68 218.79L162.61 218.68L162.55 218.58L162.48 218.47L162.41 218.37L162.34 218.27L162.28 218.16L162.21 218.06L162.15 217.95L162.08 217.85L161.99 217.7L161.9 217.54L161.8 217.39L161.71 217.22L161.61 217.06L161.52 216.89L161.42 216.72L161.32 216.54L161.23 216.36L161.13 216.18L161.04 216L160.94 215.81L160.85 215.61L160.76 215.42L160.67 215.22L160.58 215.02L160.49 214.81L160.4 214.6L160.32 214.39L160.24 214.18L160.16 213.96L160.08 213.74L160.01 213.52L159.94 213.29L159.87 213.06L159.81 212.83L159.75 212.6L159.69 212.36L159.64 212.13L159.6 211.89L159.55 211.64L159.52 211.4L159.48 211.15L159.45 210.9L159.43 210.65L159.41 210.4L159.4 210.14L159.4 209.88L159.4 209.62L159.41 209.36L159.41 209.33L159.41 209.3L159.41 209.27L159.41 209.24L159.44 208.75L159.5 208.26L159.57 207.77L159.66 207.29L159.77 206.82L159.9 206.35L160.04 205.89L160.2 205.44L160.38 204.99L160.57 204.54L160.78 204.11L161.01 203.68L161.24 203.25L161.49 202.84L161.76 202.43L162.04 202.02L162.32 201.63L162.63 201.24L162.94 200.86L163.26 200.49L163.6 200.13L163.94 199.78L164.29 199.43L164.66 199.09L165.03 198.76L165.41 198.45L165.79 198.14L166.19 197.83L166.59 197.54L166.99 197.26L167.4 196.99L167.82 196.73L168.24 196.48L168.67 196.24L169.1 196.01L169.53 195.79L169.96 195.58L170.4 195.39L170.84 195.2L171.28 195.03L171.43 194.97L171.59 194.91L171.75 194.84L171.92 194.78L172.09 194.71L172.27 194.64L172.45 194.57L172.64 194.49L172.83 194.42L173.02 194.34L173.21 194.26L173.4 194.18L173.6 194.1L173.79 194.02L173.99 193.94L174.18 193.86L174.37 193.78L174.57 193.7L174.75 193.62L174.94 193.55L175.12 193.47L175.29 193.4L175.47 193.33L175.63 193.26L175.79 193.19L175.95 193.12L176.1 193.06L176.24 193L176.37 192.95L176.49 192.9L176.6 192.85L176.71 192.8L176.8 192.76L176.89 192.73L176.96 192.7L177.07 192.65L177.13 192.62L192.69 177.1L192.72 177.05L192.74 176.99L192.77 176.93L192.79 176.89L192.8 176.85L192.82 176.81L192.84 176.76L192.86 176.71L192.88 176.66L192.91 176.61L192.93 176.56L192.95 176.5L192.98 176.44L193 176.38L193.03 176.32L193.06 176.26L193.08 176.2L193.11 176.14L193.13 176.07L193.16 176.01L193.19 175.95L193.21 175.89L193.24 175.82L193.26 175.76L193.29 175.7L193.31 175.64L193.34 175.58L193.36 175.52L193.38 175.46L193.4 175.41L193.42 175.36L193.44 175.3L193.46 175.26L193.48 175.21L193.57 174.95L193.66 174.68L193.77 174.38L193.89 174.05L194.02 173.71L194.15 173.36L194.3 172.98L194.46 172.59L194.63 172.19L194.81 171.78L195 171.35L195.2 170.91L195.42 170.47L195.64 170.02L195.88 169.56L196.13 169.1L196.39 168.64L196.67 168.18L196.96 167.72L197.27 167.25L197.58 166.8L197.91 166.34L198.26 165.89L198.62 165.45L198.99 165.02L199.39 164.6L199.79 164.18L200.21 163.79L200.65 163.4L201.1 163.03L201.57 162.68L202.06 162.35L202.56 162.03L203.08 161.74L203.61 161.47L204.17 161.22L204.74 161L205.33 160.8L205.94 160.64L206.57 160.5L206.88 160.44L207.2 160.4L207.51 160.37L207.83 160.35L208.14 160.33L208.44 160.33L208.75 160.34L209.05 160.36L209.35 160.39L209.65 160.42L209.94 160.47L210.23 160.52L210.52 160.58L210.81 160.65L211.09 160.73L211.37 160.81L211.65 160.9L211.93 160.99L212.2 161.09L212.46 161.2L212.73 161.31L212.99 161.42L213.25 161.54L213.5 161.66L213.75 161.79L214 161.92L214.24 162.05L214.48 162.19L214.71 162.33L214.94 162.47L215.17 162.61L215.39 162.75L215.61 162.9L215.82 163.04L216.03 163.18L216.24 163.33L216.44 163.47L216.63 163.61L216.82 163.75L217.01 163.89L217.09 163.96L217.18 164.02L217.26 164.09L217.35 164.15L217.43 164.22L217.52 164.29L217.6 164.35L217.69 164.42L217.77 164.48L217.85 164.55L217.94 164.62L218.02 164.68L218.11 164.75L218.19 164.82L218.27 164.88L218.36 164.95L218.44 165.02L218.52 165.08L218.61 165.15L218.69 165.22L218.77 165.29L218.85 165.36L218.94 165.42L219.02 165.49L219.1 165.56L219.18 165.63L219.26 165.7L219.34 165.77L219.43 165.84L219.51 165.91L219.59 165.98L219.67 166.05L219.75 166.12L219.83 166.19L219.91 166.26L219.99 166.33L220.07 166.4L220.15 166.47L220.23 166.54L220.31 166.61L245.89 141.53L245.99 141.44L246.09 141.35L246.19 141.27L246.29 141.2L246.4 141.12L246.51 141.06L246.62 140.99L246.73 140.94L246.85 140.88L246.96 140.84L247.08 140.79L247.2 140.75L247.32 140.72L247.44 140.69L247.56 140.66L247.68 140.64L247.8 140.63L247.93 140.62L248.05 140.61L248.17 140.61L248.3 140.62L248.42 140.62ZM183.33 195.58L183.19 195.71L183.06 195.83L182.93 195.95L182.81 196.07L182.69 196.19L182.57 196.3L182.46 196.41L182.34 196.52L182.24 196.62L182.13 196.72L182.03 196.82L181.94 196.91L181.85 197L181.76 197.09L181.68 197.17L181.5 197.35L181.31 197.52L181.12 197.68L180.93 197.84L180.73 198L180.53 198.15L180.32 198.29L180.11 198.43L179.89 198.56L179.68 198.69L179.46 198.81L179.23 198.92L179 199.03L178.77 199.13L178.54 199.23L178.3 199.32L178.07 199.4L175.36 200.3L174.58 200.58L173.8 200.92L173.01 201.31L172.23 201.75L171.47 202.23L170.73 202.74L170.01 203.29L169.33 203.86L168.69 204.46L168.09 205.08L167.56 205.72L167.08 206.36L166.67 207.02L166.33 207.67L166.07 208.33L165.91 208.97L165.83 209.61L165.83 209.85L165.84 210.09L165.86 210.33L165.9 210.58L165.94 210.84L166 211.11L166.08 211.37L166.16 211.65L166.26 211.93L166.38 212.22L166.51 212.52L166.65 212.82L166.8 213.14L166.97 213.46L167.15 213.78L167.34 214.12L167.55 214.47L168 215.17L168.47 215.86L168.95 216.53L169.46 217.19L169.98 217.83L170.53 218.45L171.09 219.06L171.67 219.66L172.26 220.23L172.87 220.79L173.5 221.33L174.14 221.86L174.8 222.36L175.48 222.85L176.16 223.31L176.86 223.76L177.58 224.18L177.92 224.37L178.25 224.55L178.57 224.71L178.88 224.86L179.18 225L179.48 225.12L179.76 225.24L180.04 225.33L180.31 225.42L180.57 225.49L180.83 225.55L181.08 225.6L181.32 225.63L181.55 225.65L181.78 225.66L182 225.66L182.22 225.64L182.82 225.53L183.43 225.33L184.05 225.05L184.67 224.69L185.3 224.25L185.92 223.76L186.53 223.2L187.12 222.6L187.7 221.95L188.26 221.27L188.78 220.56L189.28 219.83L189.74 219.08L190.16 218.32L190.54 217.56L190.86 216.81L191.13 216.07L191.15 216.07L191.17 215.98L191.2 215.89L191.23 215.79L191.27 215.68L191.31 215.56L191.35 215.43L191.39 215.3L191.44 215.15L191.49 215L191.54 214.83L191.6 214.66L191.66 214.47L191.73 214.27L191.8 214.06L191.87 213.84L191.95 213.61L192.03 213.36L192.11 213.12L192.2 212.89L192.3 212.66L192.4 212.43L192.51 212.2L192.62 211.97L192.74 211.75L192.87 211.54L193 211.32L193.14 211.11L193.28 210.9L193.43 210.7L193.59 210.5L193.75 210.31L193.91 210.12L194.08 209.93L194.26 209.75L196.15 207.86L183.61 195.32L183.47 195.45L183.33 195.58ZM192.55 186.78L191.99 187.33L191.42 187.89L190.83 188.47L190.21 189.06L189.59 189.66L188.94 190.27L188.29 190.9L200.7 203.31L205.95 198.06L193.61 185.73L193.09 186.25L192.55 186.78ZM200.56 174.73L200.25 175.46L199.89 176.29L199.52 177.17L199.14 178.05L198.78 178.89L198.46 179.65L198.19 180.26L197.99 180.7L197.88 180.91L210.52 193.54L210.73 193.44L211.16 193.26L211.78 193.01L212.54 192.72L213.39 192.39L214.28 192.05L215.17 191.7L216.02 191.36L216.78 191.05L217.4 190.78L217.84 190.57L201 173.73L200.82 174.14L200.56 174.73ZM207.49 166.88L207.2 166.96L206.91 167.05L206.63 167.16L206.35 167.29L206.07 167.43L205.8 167.59L205.53 167.76L205.26 167.94L204.99 168.15L204.73 168.36L222.99 186.62L223.29 186.24L223.58 185.84L223.83 185.44L224.05 185.04L224.23 184.63L224.38 184.22L224.49 183.8L224.57 183.38L224.6 182.96L224.59 182.54L224.53 182.11L224.47 181.83L224.38 181.55L224.27 181.26L224.14 180.97L223.99 180.68L223.82 180.38L223.64 180.09L223.46 179.8L223.26 179.51L223.06 179.22L222.85 178.93L222.09 177.91L221.3 176.92L220.49 175.95L219.65 175L218.79 174.07L217.91 173.17L217 172.29L216.06 171.44L215.11 170.61L214.13 169.8L213.13 169.02L212.51 168.57L211.93 168.18L211.37 167.83L210.84 167.53L210.33 167.28L209.84 167.08L209.38 166.93L208.95 166.83L208.54 166.77L208.15 166.77L207.78 166.81L207.49 166.88Z" id="a1wQ0fH9SC"></path><mask id="maskd1zZhDTvol" x="128.55" y="126.61" width="136.81" height="135.84" maskUnits="userSpaceOnUse"><rect x="128.55" y="126.61" width="136.81" height="135.84" fill="white"></rect><use xlink:href="#a1wQ0fH9SC" opacity="1" fill="black"></use></mask><path d="M204.8 95.78L204.92 95.79L205.04 95.81L205.16 95.83L205.28 95.86L205.4 95.89L205.52 95.93L205.63 95.97L205.75 96.01L205.86 96.06L205.97 96.12L206.09 96.18L206.19 96.24L206.3 96.31L206.4 96.38L206.51 96.46L206.61 96.54L206.7 96.63L206.8 96.72L206.89 96.82L206.97 96.92L207.05 97.02L207.13 97.12L207.2 97.23L207.27 97.33L207.33 97.44L207.38 97.56L207.44 97.67L207.49 97.78L207.53 97.9L207.57 98.02L207.6 98.14L207.63 98.26L207.65 98.38L207.67 98.5L207.69 98.62L207.7 98.74L207.71 98.86L207.71 98.98L207.7 99.11L207.69 99.23L207.68 99.35L207.66 99.47L207.64 99.59L207.62 99.71L207.58 99.83L207.55 99.95L207.51 100.07L207.46 100.18L207.41 100.3L207.36 100.41L207.3 100.52L207.23 100.63L207.16 100.73L207.09 100.84L207.01 100.94L206.93 101.04L206.84 101.13L206.75 101.23L181.44 126.04L181.45 126.05L181.47 126.06L181.51 126.1L181.55 126.14L181.6 126.2L181.66 126.27L181.73 126.36L181.81 126.45L181.89 126.55L181.98 126.66L182.08 126.78L182.18 126.91L182.29 127.04L182.4 127.18L182.52 127.33L182.63 127.48L182.76 127.63L182.88 127.79L183.01 127.95L183.13 128.11L183.26 128.28L183.39 128.44L183.51 128.6L183.64 128.76L183.76 128.92L183.88 129.08L184 129.23L184.12 129.38L184.23 129.52L184.34 129.66L184.44 129.79L184.53 129.92L184.62 130.03L184.7 130.14L184.78 130.24L184.84 130.33L184.9 130.41L184.95 130.47L184.99 130.53L185.02 130.57L185.1 130.69L185.18 130.81L185.26 130.93L185.34 131.04L185.42 131.16L185.49 131.28L185.57 131.41L185.65 131.53L185.72 131.65L185.8 131.77L185.87 131.89L185.94 132.02L186.01 132.14L186.08 132.27L186.15 132.39L186.22 132.52L186.29 132.65L186.35 132.77L186.42 132.9L186.48 133.03L186.54 133.16L186.6 133.29L186.66 133.42L186.72 133.55L186.77 133.68L186.83 133.81L186.88 133.94L186.93 134.08L186.98 134.21L187.03 134.34L187.07 134.48L187.11 134.62L187.16 134.75L187.2 134.89L187.23 135.03L187.27 135.17L187.3 135.3L187.34 135.44L187.36 135.59L187.39 135.73L187.5 136.41L187.56 137.08L187.58 137.74L187.56 138.39L187.5 139.03L187.4 139.65L187.26 140.26L187.09 140.86L186.89 141.44L186.66 142.02L186.4 142.58L186.11 143.12L185.79 143.66L185.45 144.18L185.08 144.69L184.69 145.18L184.28 145.67L183.86 146.13L183.41 146.59L182.95 147.03L182.48 147.46L182 147.87L181.5 148.27L180.99 148.66L180.48 149.03L179.96 149.39L179.44 149.73L178.91 150.06L178.38 150.38L177.85 150.68L177.32 150.96L176.8 151.23L176.28 151.49L175.77 151.73L175.27 151.96L174.77 152.17L174.29 152.37L173.82 152.55L173.37 152.72L172.93 152.87L172.32 153.07L171.6 153.31L171.19 153.44L170.86 153.55L170.84 153.58L170.49 153.93L169.76 154.65L169.11 155.31L168.73 155.68L168.33 156.08L167.91 156.5L167.47 156.95L167 157.41L166.52 157.89L166.03 158.39L165.52 158.89L165.01 159.41L164.48 159.93L163.95 160.46L163.42 160.99L162.89 161.52L162.37 162.05L161.84 162.57L161.33 163.09L160.82 163.59L160.33 164.09L159.85 164.56L159.39 165.02L158.95 165.47L158.53 165.89L158.13 166.28L157.76 166.65L157.42 166.99L157.12 167.3L156.84 167.57L156.61 167.81L156.41 168.01L156.25 168.16L156.14 168.28L156 168.42L155.87 168.57L155.74 168.72L155.62 168.88L155.5 169.03L155.39 169.19L155.29 169.35L155.18 169.52L155.09 169.68L155 169.85L154.91 170.02L154.82 170.2L154.74 170.37L154.67 170.55L154.59 170.72L154.52 170.9L154.45 171.08L154.38 171.27L154.32 171.45L154.25 171.63L154.19 171.82L154.13 172L154.07 172.19L154.01 172.37L153.95 172.56L153.89 172.75L153.83 172.93L153.77 173.12L153.71 173.3L153.65 173.49L153.58 173.68L153.52 173.86L153.45 174.04L153.39 174.23L153.32 174.41L153.24 174.59L153.17 174.77L153.09 174.95L153.01 175.13L152.92 175.3L152.78 175.58L152.64 175.85L152.49 176.13L152.34 176.4L152.19 176.67L152.03 176.94L151.87 177.21L151.71 177.47L151.54 177.74L151.37 178L151.2 178.27L151.02 178.53L150.84 178.79L150.66 179.04L150.47 179.3L150.28 179.55L150.09 179.8L149.89 180.04L149.7 180.29L149.49 180.53L149.29 180.77L149.08 181L148.87 181.24L148.65 181.47L148.43 181.69L148.21 181.92L147.99 182.13L147.76 182.35L147.53 182.56L147.29 182.77L147.06 182.97L146.82 183.17L146.57 183.37L146.33 183.56L146.08 183.75L145.83 183.93L145.57 184.11L145.31 184.28L145.05 184.45L144.79 184.62L144.46 184.81L144.13 184.99L143.8 185.15L143.47 185.31L143.14 185.45L142.81 185.58L142.47 185.7L142.14 185.81L141.8 185.91L141.47 185.99L141.13 186.07L140.79 186.13L140.45 186.19L140.11 186.23L139.78 186.26L139.44 186.28L139.1 186.29L138.76 186.29L138.42 186.29L138.08 186.27L137.74 186.24L137.4 186.2L137.06 186.16L136.72 186.1L136.39 186.04L136.05 185.96L135.71 185.88L135.38 185.79L135.04 185.69L134.71 185.59L134.37 185.47L134.04 185.35L133.71 185.22L133.38 185.08L133.05 184.93L132.72 184.78L132.4 184.62L132.07 184.45L131.75 184.28L131.43 184.1L131.3 184.03L131.17 183.95L131.05 183.88L130.92 183.8L130.8 183.73L130.67 183.65L130.55 183.58L130.42 183.5L130.3 183.42L130.18 183.34L130.05 183.26L129.93 183.19L129.81 183.11L129.68 183.03L129.56 182.95L129.44 182.86L129.32 182.78L129.2 182.7L129.08 182.62L128.96 182.54L128.84 182.45L128.72 182.37L128.6 182.28L128.48 182.2L128.36 182.11L128.25 182.03L128.13 181.94L128.01 181.85L127.9 181.77L127.78 181.68L127.66 181.59L127.55 181.5L127.43 181.41L127.32 181.32L127.2 181.23L127.09 181.14L126.97 181.05L126.86 180.96L126.75 180.86L126.64 180.77L105.31 201.71L105.26 201.76L105.21 201.8L105.17 201.84L105.12 201.88L105.07 201.92L105.02 201.96L104.97 202L104.91 202.04L104.86 202.07L104.81 202.11L104.76 202.14L104.7 202.18L104.65 202.21L104.6 202.24L104.54 202.27L104.49 202.29L104.43 202.32L104.37 202.35L104.32 202.37L104.26 202.39L104.2 202.42L104.15 202.44L104.09 202.46L104.03 202.48L103.97 202.49L103.91 202.51L103.86 202.53L103.8 202.54L103.74 202.55L103.68 202.57L103.62 202.58L103.56 202.59L103.5 202.59L103.44 202.6L103.38 202.61L103.32 202.61L103.26 202.62L103.2 202.62L103.14 202.62L103.08 202.62L103.01 202.62L102.95 202.62L102.89 202.62L102.83 202.61L102.77 202.61L102.71 202.6L102.64 202.59L102.58 202.58L102.52 202.57L102.46 202.56L102.4 202.55L102.34 202.54L102.28 202.52L102.22 202.51L102.16 202.49L102.1 202.47L102.04 202.45L101.98 202.43L101.92 202.41L101.86 202.38L101.81 202.36L101.75 202.33L101.69 202.31L101.63 202.28L101.58 202.25L101.52 202.22L101.47 202.19L101.41 202.16L101.36 202.12L101.3 202.09L101.25 202.05L101.2 202.01L101.15 201.97L101.1 201.93L101.05 201.89L101 201.85L100.95 201.81L100.9 201.76L100.85 201.72L100.8 201.67L100.71 201.57L100.63 201.48L100.55 201.37L100.47 201.27L100.4 201.17L100.33 201.06L100.27 200.95L100.21 200.84L100.16 200.72L100.11 200.61L100.07 200.49L100.03 200.38L100 200.26L99.97 200.14L99.94 200.02L99.92 199.9L99.91 199.77L99.9 199.65L99.89 199.53L99.89 199.41L99.89 199.29L99.9 199.16L99.91 199.04L99.93 198.92L99.95 198.8L99.98 198.68L100.01 198.56L100.05 198.44L100.09 198.33L100.13 198.21L100.18 198.1L100.24 197.98L100.3 197.87L100.36 197.77L100.43 197.66L100.5 197.56L100.58 197.45L100.66 197.35L100.75 197.26L100.84 197.16L122.12 176.28L122.04 176.18L121.96 176.09L121.88 175.99L121.81 175.9L121.73 175.8L121.65 175.71L121.58 175.61L121.5 175.51L121.42 175.42L121.35 175.32L121.27 175.22L121.2 175.13L121.12 175.03L121.05 174.93L120.98 174.83L120.9 174.73L120.83 174.64L120.76 174.54L120.68 174.44L120.61 174.34L120.54 174.24L120.47 174.14L120.4 174.04L120.33 173.94L120.26 173.84L120.19 173.74L120.12 173.64L120.05 173.53L119.98 173.43L119.91 173.33L119.84 173.23L119.77 173.13L119.71 173.02L119.64 172.92L119.57 172.82L119.51 172.71L119.44 172.61L119.37 172.5L119.31 172.4L119.24 172.3L119.15 172.15L119.06 172L118.97 171.84L118.87 171.68L118.78 171.52L118.68 171.35L118.59 171.18L118.49 171.01L118.4 170.83L118.3 170.65L118.21 170.46L118.12 170.28L118.02 170.08L117.93 169.89L117.84 169.69L117.75 169.49L117.67 169.29L117.58 169.08L117.5 168.87L117.42 168.66L117.34 168.45L117.26 168.23L117.19 168.01L117.12 167.78L117.06 167.56L116.99 167.33L116.93 167.1L116.88 166.86L116.83 166.63L116.78 166.39L116.74 166.15L116.7 165.91L116.67 165.66L116.64 165.41L116.62 165.17L116.6 164.91L116.59 164.66L116.59 164.4L116.59 164.15L116.59 163.89L116.59 163.85L116.6 163.83L116.6 163.8L116.6 163.77L116.63 163.28L116.69 162.79L116.76 162.31L116.85 161.84L116.96 161.37L117.08 160.91L117.23 160.45L117.38 160L117.56 159.55L117.75 159.11L117.96 158.68L118.18 158.26L118.41 157.84L118.66 157.42L118.92 157.02L119.2 156.62L119.49 156.23L119.78 155.84L120.09 155.47L120.41 155.1L120.75 154.74L121.09 154.39L121.44 154.05L121.8 153.71L122.16 153.39L122.54 153.07L122.92 152.77L123.31 152.47L123.71 152.18L124.11 151.9L124.52 151.63L124.93 151.37L125.35 151.13L125.77 150.89L126.2 150.66L126.62 150.44L127.06 150.24L127.49 150.04L127.92 149.86L128.36 149.69L128.51 149.63L128.66 149.57L128.83 149.51L128.99 149.44L129.16 149.37L129.34 149.3L129.52 149.23L129.71 149.15L129.89 149.08L130.08 149L130.27 148.92L130.46 148.85L130.66 148.77L130.85 148.69L131.04 148.61L131.24 148.53L131.43 148.45L131.61 148.37L131.8 148.3L131.98 148.22L132.16 148.14L132.34 148.07L132.51 148L132.67 147.93L132.83 147.86L132.98 147.8L133.13 147.74L133.27 147.68L133.4 147.62L133.52 147.57L133.63 147.53L133.74 147.48L133.83 147.44L133.91 147.41L133.99 147.38L134.05 147.35L134.13 147.32L134.16 147.31L149.58 131.92L149.59 131.89L149.61 131.84L149.62 131.82L149.64 131.79L149.65 131.75L149.67 131.72L149.69 131.68L149.7 131.63L149.72 131.59L149.74 131.54L149.77 131.49L149.79 131.44L149.81 131.38L149.84 131.33L149.86 131.27L149.89 131.21L149.91 131.15L149.94 131.09L149.96 131.03L149.99 130.97L150.01 130.91L150.04 130.84L150.07 130.78L150.09 130.72L150.12 130.66L150.14 130.6L150.17 130.53L150.19 130.47L150.21 130.42L150.24 130.36L150.26 130.3L150.28 130.25L150.3 130.19L150.32 130.14L150.34 130.09L150.35 130.05L150.44 129.8L150.54 129.52L150.65 129.22L150.76 128.91L150.89 128.57L151.02 128.21L151.17 127.84L151.33 127.46L151.49 127.06L151.67 126.65L151.86 126.22L152.06 125.79L152.27 125.35L152.5 124.91L152.73 124.46L152.98 124L153.24 123.54L153.52 123.08L153.81 122.62L154.11 122.17L154.42 121.71L154.75 121.26L155.09 120.82L155.45 120.38L155.82 119.95L156.21 119.53L156.61 119.12L157.03 118.73L157.46 118.35L157.91 117.98L158.37 117.63L158.85 117.3L159.35 116.99L159.87 116.7L160.4 116.43L160.95 116.19L161.51 115.97L162.1 115.78L162.7 115.61L163.32 115.47L163.64 115.42L163.95 115.37L164.26 115.34L164.57 115.32L164.88 115.31L165.18 115.31L165.49 115.32L165.78 115.34L166.08 115.36L166.38 115.4L166.67 115.44L166.96 115.5L167.25 115.56L167.53 115.62L167.81 115.7L168.09 115.78L168.36 115.87L168.63 115.96L168.9 116.06L169.17 116.16L169.43 116.27L169.69 116.39L169.94 116.51L170.19 116.63L170.44 116.75L170.69 116.88L170.93 117.01L171.16 117.15L171.39 117.29L171.62 117.42L171.85 117.56L172.07 117.71L172.28 117.85L172.49 117.99L172.7 118.13L172.9 118.28L173.1 118.42L173.3 118.56L173.48 118.7L173.67 118.84L173.75 118.9L173.84 118.97L173.92 119.03L174.01 119.09L174.09 119.16L174.17 119.22L174.26 119.29L174.34 119.36L174.43 119.42L174.51 119.49L174.59 119.55L174.68 119.62L174.76 119.68L174.84 119.75L174.92 119.82L175.01 119.88L175.09 119.95L175.17 120.02L175.25 120.08L175.33 120.15L175.42 120.22L175.5 120.29L175.58 120.35L175.66 120.42L175.74 120.49L175.82 120.56L175.9 120.63L175.99 120.69L176.07 120.76L176.15 120.83L176.23 120.9L176.31 120.97L176.39 121.04L176.47 121.11L176.55 121.18L176.63 121.25L176.71 121.32L176.79 121.39L176.87 121.46L176.94 121.53L202.29 96.68L202.39 96.59L202.48 96.5L202.59 96.42L202.69 96.35L202.79 96.27L202.9 96.21L203.01 96.15L203.12 96.09L203.24 96.04L203.35 95.99L203.47 95.95L203.58 95.91L203.7 95.87L203.82 95.84L203.94 95.82L204.06 95.8L204.19 95.78L204.31 95.77L204.43 95.77L204.55 95.77L204.67 95.77L204.8 95.78ZM140.3 150.23L140.16 150.36L140.03 150.48L139.91 150.6L139.78 150.72L139.66 150.84L139.55 150.95L139.43 151.06L139.32 151.16L139.22 151.27L139.11 151.37L139.02 151.46L138.92 151.55L138.83 151.64L138.74 151.73L138.66 151.81L138.48 151.98L138.3 152.15L138.11 152.32L137.92 152.48L137.72 152.63L137.52 152.78L137.32 152.92L137.11 153.06L136.89 153.19L136.68 153.31L136.46 153.43L136.24 153.55L136.01 153.65L135.78 153.75L135.55 153.85L135.32 153.94L135.08 154.02L132.4 154.91L131.63 155.19L130.85 155.53L130.07 155.91L129.3 156.35L128.55 156.82L127.81 157.33L127.1 157.87L126.43 158.44L125.79 159.04L125.2 159.65L124.67 160.28L124.19 160.92L123.79 161.57L123.45 162.22L123.2 162.86L123.03 163.5L122.96 164.14L122.96 164.37L122.97 164.61L122.99 164.85L123.02 165.1L123.07 165.36L123.13 165.62L123.2 165.88L123.29 166.16L123.39 166.44L123.5 166.72L123.63 167.02L123.77 167.32L123.92 167.63L124.09 167.95L124.27 168.27L124.46 168.61L124.67 168.95L125.11 169.64L125.57 170.32L126.05 170.99L126.56 171.64L127.08 172.28L127.61 172.9L128.17 173.5L128.74 174.09L129.33 174.66L129.94 175.22L130.56 175.75L131.2 176.27L131.85 176.77L132.52 177.25L133.2 177.71L133.89 178.15L134.6 178.57L134.94 178.76L135.26 178.94L135.58 179.1L135.89 179.25L136.19 179.39L136.48 179.51L136.76 179.62L137.04 179.72L137.31 179.8L137.57 179.87L137.82 179.93L138.07 179.98L138.3 180.01L138.54 180.03L138.76 180.04L138.99 180.04L139.2 180.02L139.79 179.91L140.4 179.72L141.01 179.43L141.63 179.08L142.25 178.65L142.86 178.15L143.47 177.61L144.06 177.01L144.63 176.37L145.18 175.69L145.7 174.99L146.2 174.26L146.65 173.52L147.07 172.77L147.44 172.02L147.76 171.27L148.03 170.54L148.04 170.54L148.07 170.45L148.1 170.36L148.13 170.26L148.17 170.15L148.2 170.03L148.24 169.9L148.29 169.77L148.33 169.63L148.38 169.47L148.44 169.31L148.49 169.14L148.56 168.95L148.62 168.76L148.69 168.55L148.76 168.33L148.84 168.1L148.92 167.85L149 167.62L149.09 167.39L149.18 167.15L149.29 166.93L149.39 166.7L149.51 166.48L149.63 166.26L149.75 166.04L149.88 165.83L150.02 165.62L150.16 165.42L150.31 165.22L150.46 165.02L150.62 164.83L150.78 164.64L150.95 164.46L151.13 164.28L153 162.4L140.57 149.97L140.43 150.1L140.3 150.23ZM149.44 141.52L148.88 142.06L148.31 142.62L147.73 143.19L147.12 143.77L146.5 144.37L145.86 144.98L145.21 145.6L157.51 157.9L162.71 152.69L150.48 140.47L149.97 140.99L149.44 141.52ZM157.38 129.57L157.06 130.3L156.71 131.12L156.34 131.99L155.97 132.87L155.61 133.7L155.29 134.44L155.02 135.06L154.82 135.49L154.72 135.69L167.25 148.21L167.45 148.11L167.88 147.93L168.49 147.69L169.24 147.4L170.08 147.08L170.97 146.73L171.85 146.39L172.69 146.05L173.45 145.74L174.06 145.48L174.49 145.27L157.81 128.59L157.63 128.99L157.38 129.57ZM164.24 121.79L163.95 121.87L163.67 121.97L163.39 122.08L163.11 122.2L162.83 122.34L162.56 122.49L162.29 122.66L162.03 122.85L161.76 123.05L161.5 123.27L179.59 141.36L179.9 140.97L180.18 140.58L180.43 140.19L180.64 139.79L180.83 139.38L180.98 138.98L181.09 138.56L181.16 138.15L181.19 137.73L181.18 137.31L181.13 136.89L181.06 136.61L180.97 136.33L180.86 136.04L180.73 135.75L180.58 135.47L180.42 135.18L180.25 134.88L180.06 134.59L179.86 134.31L179.66 134.02L179.46 133.73L178.7 132.73L177.93 131.74L177.12 130.78L176.29 129.84L175.44 128.92L174.56 128.03L173.66 127.16L172.73 126.31L171.79 125.49L170.82 124.69L169.82 123.92L169.22 123.47L168.64 123.08L168.08 122.73L167.55 122.44L167.05 122.19L166.57 121.99L166.12 121.84L165.68 121.74L165.28 121.69L164.89 121.69L164.53 121.73L164.24 121.79Z" id="a4x6tvT4LP"></path><mask id="maskc4SGIuF2zV" x="85.89" y="81.77" width="135.82" height="134.86" maskUnits="userSpaceOnUse"><rect x="85.89" y="81.77" width="135.82" height="134.86" fill="white"></rect><use xlink:href="#a4x6tvT4LP" opacity="1" fill="black"></use></mask></defs><g><g><g><g mask="url(#maska38AWff1K)"><use xlink:href="#bEOvEpEA" opacity="1" fill-opacity="0" stroke="#ffffff" stroke-width="14" stroke-opacity="1"></use></g></g><g><g mask="url(#maskd1zZhDTvol)"><use xlink:href="#a1wQ0fH9SC" opacity="1" fill-opacity="0" stroke="#ffffff" stroke-width="14" stroke-opacity="1"></use></g></g><g><g mask="url(#maskc4SGIuF2zV)"><use xlink:href="#a4x6tvT4LP" opacity="1" fill-opacity="0" stroke="#ffffff" stroke-width="14" stroke-opacity="1"></use></g></g></g></g></svg>